<svg xmlns="http://www.w3.org/2000/svg" width="682.667" height="682.667" preserveAspectRatio="xMidYMid meet" version="1.0" viewBox="0 0 512 512"><metadata>Created by potrace 1.11, written by Peter Selinger 2001-2013</metadata><g fill="#000" stroke="none"><path d="M2667 4734 c-2 -2 -111 -11 -252 -20 -55 -3 -104 -9 -108 -13 -4 -4 -10 -43 -12 -87 -3 -43 -7 -97 -10 -119 -2 -22 -1 -45 3 -51 10 -16 72 -25 108 -15 17 4 54 2 89 -5 34 -7 90 -15 125 -17 92 -6 100 -11 100 -61 0 -101 -51 -238 -113 -306 -28 -31 -92 -80 -105 -80 -5 0 -16 -8 -25 -18 -9 -10 -38 -29 -64 -42 -27 -13 -52 -28 -58 -32 -5 -5 -55 -35 -110 -67 -55 -33 -114 -74 -131 -93 -87 -93 -136 -228 -150 -408 -6 -92 -13 -370 -8 -370 2 0 16 26 30 57 48 101 108 180 216 285 142 137 285 215 408 222 8 1 21 5 28 9 6 5 12 4 12 -1 0 -5 14 -7 30 -4 32 5 33 2 31 -53 -2 -26 -6 -51 -25 -150 -10 -48 -51 -143 -79 -180 -84 -110 -118 -130 -402 -232 -231 -82 -280 -101 -337 -130 -57 -28 -154 -125 -170 -170 -7 -18 -15 -33 -19 -33 -4 0 -13 -17 -20 -37 -6 -21 -14 -42 -18 -48 -3 -5 -6 -14 -7 -20 -1 -5 -7 -30 -14 -55 -7 -25 -13 -59 -14 -75 -1 -17 -4 -35 -7 -40 -4 -6 -6 -34 -5 -62 1 -29 -3 -53 -7 -53 -5 0 -6 -4 -2 -9 3 -5 7 -61 9 -125 2 -63 8 -121 12 -128 5 -7 9 -22 10 -33 1 -34 44 -155 76 -219 81 -161 246 -361 367 -443 31 -21 58 -40 61 -44 3 -3 25 -16 50 -30 25 -13 48 -28 52 -34 4 -5 8 -6 8 -1 0 4 11 1 24 -7 31 -21 37 -13 21 26 -11 27 -11 37 0 64 14 33 82 83 116 86 10 1 19 5 19 10 0 5 7 7 15 3 8 -3 15 0 15 6 0 6 2 9 5 6 3 -3 31 0 63 7 58 12 158 12 170 1 12 -13 5 -282 -8 -306 -34 -63 -28 -62 -251 -56 -365 10 -427 25 -521 129 -36 39 -108 174 -122 227 -13 50 -32 63 -116 75 -14 2 -45 7 -70 10 -25 4 -61 9 -80 12 -19 3 -47 6 -62 6 -16 1 -28 5 -28 9 0 4 -9 5 -20 3 -11 -2 -20 0 -20 6 0 5 -9 9 -20 9 -11 0 -20 3 -20 8 0 4 -11 20 -25 36 -13 16 -22 33 -19 37 3 5 2 15 -3 22 -10 16 -12 32 -14 92 -3 78 0 95 15 101 16 6 78 -20 115 -48 31 -24 35 -18 17 26 -8 20 -12 36 -8 36 4 0 -1 5 -10 11 -10 5 -18 16 -18 24 0 8 -9 34 -19 57 -19 41 -33 77 -35 88 -1 3 -4 10 -7 15 -9 13 -57 172 -64 210 -14 67 -16 93 -19 165 -1 41 1 80 5 85 3 6 6 21 4 35 -1 14 4 43 11 66 7 23 10 45 7 48 -4 3 -2 6 4 6 5 0 10 7 11 15 1 8 3 22 4 30 1 8 5 15 10 15 4 0 8 6 8 13 0 18 28 75 41 82 5 4 7 11 4 16 -4 5 -3 9 2 9 4 0 14 13 21 28 6 16 21 38 32 50 11 12 20 26 20 31 0 5 10 17 22 25 12 9 19 16 15 16 -5 0 31 41 80 91 48 49 89 98 90 107 2 10 0 11 -3 5 -3 -7 -12 -13 -20 -13 -9 0 -25 -5 -37 -12 -12 -7 -26 -13 -32 -14 -5 -2 -75 -30 -155 -63 -152 -64 -169 -69 -171 -48 0 6 -3 23 -5 37 -5 29 -10 66 -18 130 -3 25 -8 61 -10 80 -3 19 -8 58 -12 85 -12 85 -12 90 -15 95 -1 3 -3 10 -4 15 -4 30 -39 84 -60 93 -16 7 -25 8 -25 2 0 -6 -8 -10 -18 -10 -10 0 -27 -7 -39 -15 -12 -9 -26 -15 -30 -14 -4 1 -11 0 -15 -1 -5 -1 -17 -4 -28 -5 -11 -1 -21 -4 -22 -5 -2 -1 -28 -4 -58 -5 -95 -6 -164 -25 -142 -39 7 -4 12 -4 12 0 0 3 6 2 13 -4 7 -6 28 -14 47 -17 43 -8 43 -7 29 -41 -7 -16 -12 -32 -11 -36 1 -5 -3 -8 -9 -8 -5 0 -7 -4 -4 -10 3 -5 1 -10 -6 -10 -7 0 -9 -3 -5 -7 3 -4 25 -6 49 -5 23 2 75 -6 114 -16 40 -10 76 -15 81 -10 5 5 18 10 30 13 12 2 26 7 32 10 5 3 23 -12 39 -35 29 -40 29 -41 27 -171 l-1 -131 -200 -101 c-309 -157 -366 -202 -437 -347 -41 -84 -42 -86 -42 -195 0 -122 4 -150 33 -252 18 -63 95 -205 136 -249 5 -6 17 -22 25 -34 8 -12 33 -42 55 -65 23 -24 50 -55 60 -69 18 -24 48 -36 43 -18 -3 14 25 92 34 92 4 0 8 6 8 13 0 15 53 63 92 83 49 25 149 25 200 0 41 -20 43 -23 43 -66 0 -25 3 -52 7 -61 4 -9 2 -21 -4 -27 -8 -8 -8 -12 -1 -12 5 0 9 -10 7 -22 -4 -39 -15 -91 -19 -98 -4 -6 -80 -6 -80 0 0 1 -13 3 -30 5 -16 1 -30 3 -30 5 0 1 -20 3 -45 5 -25 2 -45 4 -45 5 0 7 -80 17 -200 25 -86 6 -145 21 -145 37 0 5 -5 8 -11 8 -7 0 -34 16 -60 35 -27 19 -53 35 -58 35 -5 0 -11 3 -13 8 -2 4 -30 25 -63 47 -33 22 -62 43 -63 48 -2 4 -10 7 -18 7 -8 0 -14 5 -14 10 0 6 -6 10 -14 10 -8 0 -16 4 -18 8 -1 4 -39 32 -83 62 -44 30 -89 63 -99 73 -11 9 -24 17 -30 17 -12 0 13 -23 89 -80 33 -25 61 -48 63 -52 2 -5 10 -8 18 -8 8 0 14 -4 14 -8 0 -5 21 -24 48 -42 26 -19 51 -40 55 -47 4 -7 12 -13 17 -13 5 0 20 -10 34 -22 13 -13 39 -36 58 -51 89 -77 225 -219 236 -248 2 -5 10 -9 18 -9 8 0 14 -4 14 -10 0 -5 9 -10 20 -10 11 0 20 -4 20 -10 0 -5 7 -10 15 -10 8 0 15 -4 15 -10 0 -5 6 -10 14 -10 7 0 30 -18 50 -40 20 -22 36 -37 36 -33 0 5 6 -3 14 -17 52 -93 76 -144 76 -159 0 -9 4 -21 10 -27 5 -5 11 -21 14 -34 2 -14 5 -27 6 -30 2 -3 2 -8 1 -12 0 -5 4 -8 9 -8 5 0 9 -3 8 -8 -2 -6 24 -95 39 -132 3 -8 8 -21 10 -28 1 -6 5 -18 6 -25 17 -60 74 -168 110 -209 57 -64 132 -89 312 -104 44 -3 98 -8 120 -9 22 -2 87 -7 145 -12 133 -10 1781 -11 1915 0 137 10 270 39 340 73 52 26 195 150 195 170 0 4 14 30 32 58 17 28 39 65 48 82 68 120 116 199 122 202 5 2 8 12 8 22 0 10 4 21 9 24 5 4 26 37 47 74 20 37 41 70 46 73 6 3 9 9 9 13 -3 16 86 155 102 160 9 2 18 5 20 6 3 2 77 20 107 26 14 3 41 9 60 14 19 5 51 12 70 15 19 3 43 8 52 11 9 3 27 7 40 10 13 3 34 8 48 11 14 3 33 6 43 7 9 0 17 5 17 10 0 8 -77 103 -119 147 -36 36 -119 136 -146 173 -11 16 -30 40 -41 55 -63 77 -227 366 -227 398 0 7 -3 13 -7 13 -4 0 -15 21 -24 48 -10 26 -22 56 -27 67 -27 59 -84 267 -94 345 -3 25 -8 65 -12 90 -4 25 -7 64 -7 87 -1 24 -3 43 -6 43 -5 0 -6 157 -1 163 1 1 4 16 6 32 4 35 18 118 20 125 5 14 19 116 17 123 -1 4 2 7 8 7 5 0 7 6 4 14 -3 8 -1 17 4 20 6 3 43 -40 83 -96 41 -57 76 -105 79 -108 13 -12 49 -69 69 -107 46 -90 23 -129 -111 -191 -77 -36 -138 -85 -123 -100 3 -3 32 8 63 24 31 17 95 46 142 64 146 57 183 100 179 209 -1 42 -10 72 -37 124 -20 37 -40 67 -44 67 -4 0 -8 6 -8 14 0 8 -4 16 -8 18 -19 8 -85 118 -96 160 -7 30 -22 36 -100 42 -31 2 -52 9 -57 19 -9 14 8 116 20 127 4 3 7 14 8 25 2 28 -3 22 -296 -354 -100 -130 -204 -263 -229 -296 -26 -33 -56 -70 -67 -83 l-21 -23 -2 102 c-1 57 -5 111 -8 122 -4 13 -2 17 5 13 6 -4 9 -1 5 7 -3 8 -7 41 -8 73 -2 33 -4 62 -5 66 0 4 -20 5 -43 2 -24 -2 -65 -6 -93 -9 -82 -7 -117 -14 -132 -26 -11 -10 -8 -15 16 -30 22 -13 28 -23 24 -38 -5 -19 -1 -21 38 -22 77 -1 108 -7 146 -26 35 -17 38 -21 39 -63 0 -25 -2 -49 -5 -55 -3 -5 -7 -21 -9 -34 -2 -14 -8 -33 -14 -44 -8 -15 -7 -18 4 -11 10 6 11 5 1 -8 -7 -8 -10 -18 -6 -21 3 -4 0 -7 -7 -7 -7 0 -11 -3 -7 -6 3 -3 -1 -25 -10 -47 -8 -23 -16 -50 -18 -60 -2 -9 -7 -23 -12 -30 -4 -6 -9 -19 -10 -28 -1 -9 -8 -29 -14 -45 -7 -16 -13 -33 -15 -39 -2 -9 -30 -78 -67 -165 -6 -14 -11 -27 -12 -30 -1 -3 -8 -21 -16 -40 -7 -19 -12 -38 -11 -42 1 -5 -2 -8 -7 -8 -5 0 -12 -12 -16 -27 -3 -15 -15 -48 -26 -73 -11 -25 -24 -54 -28 -65 -5 -11 -14 -33 -21 -50 -8 -16 -14 -34 -15 -40 -2 -9 -16 -41 -71 -163 -13 -29 -24 -55 -24 -58 0 -3 -8 -24 -19 -47 -28 -65 -34 -81 -33 -89 1 -5 -3 -8 -9 -8 -5 0 -8 -4 -4 -9 3 -5 -3 -17 -12 -27 -10 -10 -17 -19 -15 -21 1 -2 1 -5 1 -8 -1 -3 -2 -8 -3 -12 -5 -23 -40 -83 -48 -83 -13 0 -93 84 -125 133 -16 23 -41 71 -57 105 -27 63 -68 192 -61 192 3 0 1 10 -4 23 -16 42 -26 151 -25 287 1 158 7 208 40 319 9 31 17 61 19 66 8 37 89 201 111 226 8 8 14 19 14 23 0 4 13 21 30 39 16 18 30 36 30 40 0 11 154 164 198 197 19 14 40 30 47 37 7 6 30 23 50 38 31 21 34 25 14 21 -13 -3 -25 -5 -26 -7 -2 -1 -7 -3 -13 -4 -5 -1 -12 -4 -15 -5 -3 -1 -8 -3 -12 -4 -5 -1 -14 -5 -20 -9 -7 -5 -13 -6 -13 -3 0 3 -18 -1 -39 -9 -22 -7 -42 -11 -45 -8 -3 4 -6 2 -6 -3 0 -5 -8 -10 -17 -11 -16 -1 -50 -9 -63 -13 -3 -1 -8 -2 -12 -1 -5 0 -8 -3 -8 -7 0 -4 -8 -8 -17 -9 -10 -1 -88 -22 -173 -48 -153 -45 -173 -51 -207 -59 -10 -2 -39 -12 -66 -21 -26 -9 -51 -14 -55 -11 -5 3 -10 82 -11 176 -2 145 0 175 14 196 9 15 22 23 30 20 8 -3 17 -2 19 3 7 11 221 2 221 -9 0 -1 16 -3 35 -5 19 -2 35 -4 35 -5 0 -1 7 -3 15 -5 27 -6 84 -17 105 -21 11 -1 31 -6 45 -9 14 -3 32 -8 40 -10 8 -2 15 -4 15 -5 0 -2 32 -10 55 -14 63 -11 96 -20 102 -30 5 -7 8 -6 8 4 -1 8 -19 35 -41 60 -51 57 -123 160 -112 160 4 0 3 4 -2 8 -12 8 -52 96 -45 98 3 0 0 7 -7 15 -6 8 -14 26 -17 39 -3 14 -10 43 -15 65 -11 43 -21 142 -26 260 -2 38 -4 70 -5 70 -1 0 -3 8 -5 18 -2 11 -5 21 -8 23 -4 4 -55 -10 -92 -26 -20 -9 -65 -23 -75 -25 -3 0 -11 -4 -17 -8 -7 -5 -13 -6 -13 -2 0 3 -9 1 -21 -5 -11 -7 -32 -14 -47 -16 -14 -3 -30 -8 -36 -12 -6 -3 -15 -7 -21 -7 -5 0 -36 -8 -68 -18 -44 -14 -62 -15 -72 -7 -11 9 -14 66 -15 268 -1 218 -4 340 -9 375 -1 6 -67 7 -74 1z m1648 -2989 c88 -8 120 -12 120 -14 0 -1 18 -4 40 -6 22 -1 53 -8 69 -14 16 -6 31 -10 33 -7 2 2 34 -7 71 -20 37 -14 69 -25 72 -26 3 0 12 -3 20 -5 8 -3 20 -6 25 -8 6 -1 15 -4 20 -5 6 -2 30 -14 55 -26 25 -13 57 -28 70 -33 64 -28 150 -91 150 -111 0 -5 -3 -9 -7 -9 -5 1 -10 0 -13 -1 -6 -2 -27 -7 -60 -13 -14 -3 -25 -6 -25 -7 0 -2 -15 -5 -90 -19 -33 -6 -71 -14 -85 -17 -14 -3 -38 -7 -55 -10 -16 -2 -36 -6 -43 -9 -13 -5 -33 33 -26 47 3 4 7 30 10 57 l5 50 -33 -4 c-18 -3 -44 -7 -58 -11 -14 -3 -40 -6 -57 -7 -18 -1 -33 -6 -33 -11 0 -5 -3 -7 -6 -4 -3 3 -31 0 -62 -7 -31 -7 -79 -16 -107 -20 -27 -4 -54 -10 -60 -13 -5 -4 -21 -8 -35 -9 -14 -1 -38 -5 -55 -8 -16 -4 -40 -8 -52 -8 -13 -1 -23 -5 -23 -9 0 -5 -6 -8 -12 -7 -7 2 -33 -1 -58 -6 -55 -10 -91 -16 -107 -17 -7 -1 -13 -4 -13 -8 0 -4 -11 -6 -25 -5 -14 2 -27 0 -30 -5 -3 -4 -14 -6 -25 -3 -11 3 -17 9 -14 14 3 5 1 9 -4 9 -13 0 -12 233 2 251 15 21 63 45 106 53 19 3 46 8 60 11 14 3 48 8 75 11 28 4 52 10 53 15 2 5 7 7 11 5 3 -2 31 -1 61 3 30 4 60 6 65 5 6 -2 42 -6 80 -9z m-581 -170 c-2 -84 -8 -136 -15 -141 -4 -2 -5 -12 -2 -22 7 -26 -89 -122 -122 -122 -17 0 -50 25 -116 89 l-90 89 28 27 c23 22 115 77 133 80 3 0 15 6 28 13 12 7 22 11 22 8 0 -2 17 4 38 15 20 10 51 18 67 16 29 -2 30 -3 29 -52z m-749 -265 c0 -1 16 -3 35 -5 45 -4 119 -15 148 -21 51 -10 69 -13 106 -19 21 -3 48 -7 60 -10 21 -5 44 -9 101 -20 56 -10 104 -28 99 -37 -6 -9 -46 -27 -74 -33 -8 -2 -15 -4 -15 -5 0 -1 -7 -3 -15 -5 -8 -2 -26 -7 -40 -10 -14 -4 -33 -8 -42 -8 -10 -1 -18 -5 -18 -9 0 -4 -9 -5 -20 -3 -11 2 -20 1 -20 -3 0 -4 -17 -8 -37 -10 -44 -3 -58 -12 -138 -87 -64 -60 -110 -89 -125 -80 -5 3 -11 2 -14 -3 -6 -9 -163 -9 -173 1 -9 9 -13 340 -5 354 4 5 14 12 22 15 13 4 165 3 165 -2z" transform="translate(0.000000,512.000000) scale(0.100000,-0.100000)"/><path d="M2400 4330 c-8 -4 -42 -18 -75 -30 -75 -27 -78 -29 -205 -81 -58 -24 -107 -44 -110 -45 -37 -11 -50 -18 -50 -25 0 -5 -7 -9 -16 -9 -19 0 -92 -50 -119 -82 -116 -134 -146 -278 -97 -458 12 -47 26 -94 31 -105 12 -29 31 -91 36 -115 2 -12 7 -31 11 -43 12 -37 11 -111 -2 -149 -7 -20 -10 -39 -7 -42 4 -3 1 -6 -6 -6 -7 0 -9 -4 -6 -10 3 -5 1 -10 -4 -10 -6 0 -11 -5 -11 -10 0 -10 -33 -61 -55 -86 -5 -6 -30 -35 -55 -64 -25 -29 -57 -67 -73 -84 -15 -17 -42 -53 -59 -81 -18 -27 -37 -53 -43 -57 -5 -4 -7 -8 -3 -8 4 0 1 -15 -6 -32 -16 -37 -13 -131 4 -136 5 -2 8 -7 5 -12 -3 -4 2 -13 10 -20 12 -10 13 -8 9 12 -10 41 -10 112 -1 143 14 43 68 117 147 199 125 130 150 158 150 167 0 5 7 9 16 9 8 0 13 4 10 9 -4 5 -3 11 2 13 4 1 22 32 41 67 l34 65 1 250 1 251 29 60 c27 54 117 157 134 153 4 -1 23 5 42 14 29 14 70 27 133 44 4 1 8 2 10 3 1 2 13 5 26 7 75 14 158 37 202 55 41 18 49 26 49 48 0 26 -90 224 -106 233 -5 3 -16 2 -24 -2z" transform="translate(0.000000,512.000000) scale(0.100000,-0.100000)"/></g></svg>